<svg xmlns="http://www.w3.org/2000/svg" xmlns:xlink="http://www.w3.org/1999/xlink" width="1080" zoomAndPan="magnify" viewBox="0 0 810 1439.999935" height="1920" preserveAspectRatio="xMidYMid meet" version="1.0"><defs><g/><clipPath id="ab0bbb17e6"><path d="M 279.621094 900.546875 L 435 900.546875 L 435 1085 L 279.621094 1085 Z M 279.621094 900.546875 " clip-rule="nonzero"/></clipPath><clipPath id="bc87281e7d"><path d="M 428 1074 L 471 1074 L 471 1091.046875 L 428 1091.046875 Z M 428 1074 " clip-rule="nonzero"/></clipPath><clipPath id="7aed7d9028"><path d="M 508 980 L 530.121094 980 L 530.121094 988 L 508 988 Z M 508 980 " clip-rule="nonzero"/></clipPath></defs><g clip-path="url(#ab0bbb17e6)"><path fill="#000000" d="M 418.132812 1052.832031 L 407.53125 1048.175781 C 406.804688 1047.859375 405.976562 1047.859375 405.246094 1048.183594 L 390.828125 1054.671875 C 390.101562 1054.996094 389.546875 1055.617188 389.304688 1056.378906 L 382.207031 1078.410156 L 366.117188 1078.886719 L 357.71875 1057.320312 C 357.429688 1056.582031 356.84375 1055.992188 356.09375 1055.710938 L 341.316406 1050.097656 C 340.578125 1049.8125 339.75 1049.859375 339.042969 1050.226562 L 318.453125 1060.777344 L 306.734375 1049.734375 L 316.035156 1028.539062 C 316.351562 1027.808594 316.351562 1026.980469 316.027344 1026.253906 L 309.546875 1011.824219 C 309.226562 1011.09375 308.605469 1010.542969 307.84375 1010.300781 L 285.828125 1003.195312 L 285.347656 987.09375 L 306.902344 978.691406 C 307.640625 978.402344 308.226562 977.816406 308.511719 977.066406 L 314.121094 962.28125 C 314.40625 961.539062 314.355469 960.710938 313.992188 960.003906 L 303.445312 939.398438 L 314.484375 927.671875 L 335.667969 936.980469 C 336.394531 937.296875 337.222656 937.296875 337.949219 936.972656 L 352.371094 930.484375 C 353.097656 930.160156 353.648438 929.539062 353.890625 928.777344 L 360.992188 906.746094 L 377.082031 906.269531 L 385.480469 927.835938 C 385.769531 928.578125 386.355469 929.164062 387.101562 929.445312 L 401.878906 935.058594 C 402.621094 935.34375 403.449219 935.296875 404.15625 934.929688 L 424.746094 924.382812 L 429.621094 928.980469 C 430.753906 930.046875 432.53125 929.992188 433.59375 928.859375 C 434.660156 927.726562 434.605469 925.949219 433.472656 924.882812 L 427.15625 918.925781 C 426.289062 918.109375 425.007812 917.925781 423.949219 918.46875 L 402.707031 929.359375 L 390.261719 924.625 L 381.601562 902.371094 C 381.167969 901.265625 380.085938 900.546875 378.898438 900.582031 L 358.84375 901.179688 C 357.65625 901.214844 356.613281 901.996094 356.25 903.128906 L 348.921875 925.867188 L 336.777344 931.324219 L 314.929688 921.730469 C 313.839844 921.25 312.574219 921.507812 311.75 922.375 L 297.996094 936.988281 C 297.183594 937.855469 297 939.136719 297.539062 940.195312 L 308.421875 961.453125 L 303.695312 973.90625 L 281.457031 982.574219 C 280.351562 983.003906 279.632812 984.089844 279.664062 985.277344 L 280.265625 1005.347656 C 280.296875 1006.53125 281.078125 1007.578125 282.210938 1007.941406 L 304.929688 1015.265625 L 310.375 1027.390625 L 310.390625 1027.417969 L 300.792969 1049.28125 C 300.316406 1050.375 300.570312 1051.640625 301.4375 1052.460938 L 316.046875 1066.230469 C 316.917969 1067.046875 318.195312 1067.230469 319.253906 1066.691406 L 340.496094 1055.796875 L 352.941406 1060.53125 L 361.605469 1082.785156 C 362.027344 1083.867188 363.066406 1084.578125 364.222656 1084.578125 C 364.25 1084.578125 364.277344 1084.578125 364.3125 1084.578125 L 384.367188 1083.976562 C 385.554688 1083.941406 386.597656 1083.160156 386.960938 1082.027344 L 394.28125 1059.296875 L 406.425781 1053.835938 L 415.882812 1057.996094 C 417.304688 1058.621094 418.960938 1057.976562 419.585938 1056.554688 C 420.199219 1055.117188 419.554688 1053.460938 418.132812 1052.832031 Z M 418.132812 1052.832031 " fill-opacity="1" fill-rule="nonzero"/></g><path fill="#000000" d="M 344.085938 966.277344 C 347.488281 962.71875 351.496094 959.886719 356 957.859375 C 360.507812 955.832031 365.289062 954.710938 370.199219 954.53125 C 375.28125 954.339844 380.300781 955.171875 385.101562 956.996094 C 387.519531 957.914062 389.835938 959.074219 392 960.441406 C 393.3125 961.269531 395.042969 960.878906 395.878906 959.570312 C 396.707031 958.257812 396.316406 956.523438 395.011719 955.6875 C 392.53125 954.117188 389.871094 952.785156 387.101562 951.734375 C 381.59375 949.636719 375.835938 948.6875 369.996094 948.910156 C 364.351562 949.117188 358.871094 950.40625 353.703125 952.730469 C 348.53125 955.054688 343.929688 958.304688 340.03125 962.386719 C 335.992188 966.613281 332.878906 971.554688 330.789062 977.066406 C 328.695312 982.582031 327.746094 988.34375 327.96875 994.1875 C 328.175781 999.832031 329.464844 1005.320312 331.789062 1010.488281 C 334.109375 1015.664062 337.359375 1020.269531 341.4375 1024.167969 C 345.660156 1028.214844 350.597656 1031.328125 356.109375 1033.417969 C 361.09375 1035.308594 366.351562 1036.265625 371.617188 1036.265625 C 374.320312 1036.265625 377.027344 1036.019531 379.703125 1035.503906 C 387.367188 1034.050781 394.519531 1030.566406 400.382812 1025.429688 C 401.550781 1024.40625 401.671875 1022.632812 400.648438 1021.460938 C 399.625 1020.292969 397.851562 1020.171875 396.679688 1021.199219 C 391.570312 1025.671875 385.332031 1028.710938 378.652344 1029.980469 C 371.78125 1031.28125 364.675781 1030.652344 358.101562 1028.152344 C 353.300781 1026.328125 348.996094 1023.617188 345.320312 1020.097656 C 341.761719 1016.695312 338.933594 1012.6875 336.90625 1008.175781 C 334.878906 1003.667969 333.761719 998.882812 333.578125 993.96875 C 333.390625 988.882812 334.21875 983.859375 336.042969 979.054688 C 337.855469 974.261719 340.5625 969.957031 344.085938 966.277344 Z M 344.085938 966.277344 " fill-opacity="1" fill-rule="nonzero"/><path fill="#000000" d="M 497.71875 998.425781 C 498.515625 994.875 498.917969 991.207031 498.917969 987.535156 C 498.917969 980.855469 497.613281 974.371094 495.03125 968.265625 C 492.542969 962.367188 488.972656 957.078125 484.433594 952.527344 C 479.890625 947.984375 474.597656 944.414062 468.707031 941.921875 C 462.605469 939.339844 456.125 938.03125 449.449219 938.03125 C 442.777344 938.03125 436.296875 939.339844 430.195312 941.921875 C 424.300781 944.414062 419.015625 947.984375 414.46875 952.527344 C 409.929688 957.070312 406.359375 962.367188 403.867188 968.265625 C 401.289062 974.371094 399.980469 980.855469 399.980469 987.535156 C 399.980469 991.207031 400.382812 994.875 401.179688 998.425781 C 401.953125 1001.882812 403.113281 1005.265625 404.609375 1008.480469 C 406.082031 1011.632812 407.894531 1014.640625 410.003906 1017.421875 C 412.097656 1020.1875 414.480469 1022.734375 417.101562 1025 C 423.265625 1030.328125 426.792969 1038.03125 426.792969 1046.140625 C 426.792969 1050.917969 430.679688 1054.800781 435.449219 1054.800781 L 463.425781 1054.800781 C 468.199219 1054.800781 472.078125 1050.914062 472.078125 1046.140625 C 472.078125 1038.03125 475.617188 1030.328125 481.773438 1025 C 484.390625 1022.734375 486.78125 1020.179688 488.871094 1017.421875 C 490.980469 1014.640625 492.796875 1011.632812 494.265625 1008.480469 C 495.792969 1005.265625 496.945312 1001.890625 497.71875 998.425781 Z M 490.050781 1006.492188 C 488.714844 1009.34375 487.070312 1012.074219 485.167969 1014.585938 C 483.273438 1017.085938 481.105469 1019.398438 478.734375 1021.445312 C 471.539062 1027.667969 467.417969 1036.664062 467.417969 1046.132812 C 467.417969 1048.324219 465.640625 1050.105469 463.453125 1050.105469 L 435.46875 1050.105469 C 433.277344 1050.105469 431.5 1048.324219 431.5 1046.132812 C 431.5 1036.664062 427.378906 1027.667969 420.1875 1021.445312 C 417.816406 1019.390625 415.644531 1017.085938 413.753906 1014.585938 C 411.847656 1012.066406 410.203125 1009.34375 408.863281 1006.492188 C 406.082031 1000.542969 404.675781 994.160156 404.675781 987.535156 C 404.675781 981.480469 405.859375 975.613281 408.191406 970.089844 C 410.445312 964.753906 413.671875 959.960938 417.789062 955.84375 C 421.902344 951.726562 426.691406 948.5 432.027344 946.242188 C 437.550781 943.902344 443.410156 942.722656 449.457031 942.722656 C 455.503906 942.722656 461.371094 943.910156 466.886719 946.242188 C 472.222656 948.5 477.011719 951.726562 481.125 955.84375 C 485.238281 959.960938 488.464844 964.753906 490.722656 970.089844 C 493.058594 975.617188 494.238281 981.480469 494.238281 987.535156 C 494.238281 994.164062 492.832031 1000.542969 490.050781 1006.492188 Z M 490.050781 1006.492188 " fill-opacity="1" fill-rule="nonzero"/><path fill="#000000" d="M 465.324219 1059.503906 L 433.554688 1059.503906 C 430.71875 1059.503906 428.429688 1061.804688 428.429688 1064.632812 C 428.429688 1067.472656 430.726562 1069.761719 433.554688 1069.761719 L 465.324219 1069.761719 C 468.160156 1069.761719 470.449219 1067.464844 470.449219 1064.632812 C 470.449219 1061.804688 468.160156 1059.503906 465.324219 1059.503906 Z M 465.324219 1059.503906 " fill-opacity="1" fill-rule="nonzero"/><g clip-path="url(#bc87281e7d)"><path fill="#000000" d="M 465.324219 1074.097656 L 433.554688 1074.097656 C 430.71875 1074.097656 428.429688 1076.394531 428.429688 1079.226562 C 428.429688 1082.0625 430.726562 1084.355469 433.554688 1084.355469 L 437.117188 1084.355469 C 437.117188 1088.054688 442.835938 1091.046875 449.886719 1091.046875 C 456.9375 1091.046875 462.65625 1088.046875 462.65625 1084.355469 L 465.3125 1084.355469 C 468.148438 1084.355469 470.4375 1082.054688 470.4375 1079.226562 C 470.449219 1076.394531 468.160156 1074.097656 465.324219 1074.097656 Z M 465.324219 1074.097656 " fill-opacity="1" fill-rule="nonzero"/></g><g clip-path="url(#7aed7d9028)"><path fill="#000000" d="M 526.59375 980.371094 L 512.320312 980.371094 C 510.382812 980.371094 508.804688 981.945312 508.804688 983.886719 C 508.804688 985.828125 510.382812 987.40625 512.320312 987.40625 L 526.59375 987.40625 C 528.535156 987.40625 530.109375 985.828125 530.109375 983.886719 C 530.109375 981.945312 528.539062 980.371094 526.59375 980.371094 Z M 526.59375 980.371094 " fill-opacity="1" fill-rule="nonzero"/></g><path fill="#000000" d="M 493.335938 945.398438 C 494.238281 945.398438 495.132812 945.054688 495.820312 944.367188 L 505.910156 934.269531 C 507.285156 932.894531 507.285156 930.671875 505.910156 929.296875 C 504.535156 927.921875 502.3125 927.921875 500.941406 929.296875 L 490.851562 939.394531 C 489.476562 940.769531 489.476562 942.992188 490.851562 944.367188 C 491.539062 945.054688 492.441406 945.398438 493.335938 945.398438 Z M 493.335938 945.398438 " fill-opacity="1" fill-rule="nonzero"/><path fill="#000000" d="M 449.894531 931.789062 C 451.835938 931.789062 453.410156 930.214844 453.410156 928.273438 L 453.410156 913.992188 C 453.410156 912.050781 451.835938 910.472656 449.894531 910.472656 C 447.953125 910.472656 446.378906 912.050781 446.378906 913.992188 L 446.378906 928.273438 C 446.378906 930.214844 447.953125 931.789062 449.894531 931.789062 Z M 449.894531 931.789062 " fill-opacity="1" fill-rule="nonzero"/><path fill="#000000" d="M 496.527344 1025.570312 C 495.152344 1024.195312 492.933594 1024.195312 491.558594 1025.570312 C 490.183594 1026.945312 490.183594 1029.171875 491.558594 1030.546875 L 501.648438 1040.640625 C 502.332031 1041.328125 503.230469 1041.671875 504.132812 1041.671875 C 505.035156 1041.671875 505.929688 1041.328125 506.617188 1040.640625 C 507.992188 1039.265625 507.992188 1037.042969 506.617188 1035.667969 Z M 496.527344 1025.570312 " fill-opacity="1" fill-rule="nonzero"/><path fill="#000000" d="M 437.949219 965.675781 C 437.984375 965.894531 437.976562 966.113281 437.925781 966.328125 C 437.875 966.542969 437.785156 966.742188 437.65625 966.921875 C 437.523438 967.101562 437.367188 967.25 437.175781 967.367188 C 436.988281 967.484375 436.785156 967.558594 436.566406 967.59375 C 436.347656 967.628906 436.132812 967.621094 435.914062 967.570312 C 435.699219 967.519531 435.503906 967.429688 435.324219 967.300781 C 435.144531 967.171875 434.996094 967.011719 434.878906 966.824219 C 434.761719 966.636719 434.6875 966.429688 434.652344 966.210938 C 434.617188 965.992188 434.625 965.777344 434.675781 965.5625 C 434.726562 965.34375 434.816406 965.148438 434.945312 964.96875 C 435.074219 964.789062 435.234375 964.640625 435.421875 964.523438 C 435.609375 964.40625 435.8125 964.332031 436.03125 964.296875 C 436.25 964.257812 436.46875 964.265625 436.683594 964.316406 C 436.898438 964.367188 437.097656 964.460938 437.277344 964.589844 C 437.457031 964.71875 437.605469 964.878906 437.71875 965.066406 C 437.835938 965.253906 437.914062 965.457031 437.949219 965.675781 Z M 437.949219 965.675781 " fill-opacity="1" fill-rule="nonzero"/><path fill="#000000" d="M 441.285156 995.816406 C 441.308594 996.035156 441.289062 996.253906 441.222656 996.464844 C 441.160156 996.675781 441.058594 996.867188 440.917969 997.039062 C 440.777344 997.210938 440.609375 997.347656 440.414062 997.453125 C 440.21875 997.558594 440.007812 997.621094 439.789062 997.644531 C 439.570312 997.664062 439.351562 997.644531 439.140625 997.578125 C 438.929688 997.515625 438.738281 997.414062 438.566406 997.273438 C 438.394531 997.132812 438.257812 996.964844 438.152344 996.769531 C 438.046875 996.574219 437.984375 996.367188 437.960938 996.144531 C 437.941406 995.925781 437.960938 995.707031 438.027344 995.496094 C 438.089844 995.285156 438.191406 995.09375 438.332031 994.921875 C 438.472656 994.75 438.640625 994.609375 438.835938 994.507812 C 439.03125 994.402344 439.238281 994.339844 439.460938 994.316406 C 439.679688 994.296875 439.898438 994.316406 440.109375 994.378906 C 440.320312 994.445312 440.511719 994.546875 440.683594 994.6875 C 440.855469 994.828125 440.992188 994.996094 441.097656 995.191406 C 441.203125 995.386719 441.265625 995.59375 441.285156 995.816406 Z M 441.285156 995.816406 " fill-opacity="1" fill-rule="nonzero"/><path fill="#000000" d="M 433.390625 986.445312 C 433.472656 986.652344 433.515625 986.863281 433.515625 987.085938 C 433.515625 987.308594 433.472656 987.519531 433.390625 987.726562 C 433.304688 987.929688 433.183594 988.109375 433.027344 988.269531 C 432.871094 988.425781 432.691406 988.546875 432.484375 988.628906 C 432.28125 988.714844 432.066406 988.757812 431.847656 988.757812 C 431.625 988.757812 431.410156 988.714844 431.207031 988.628906 C 431.003906 988.546875 430.820312 988.425781 430.664062 988.269531 C 430.507812 988.109375 430.386719 987.929688 430.304688 987.726562 C 430.21875 987.519531 430.175781 987.308594 430.175781 987.085938 C 430.175781 986.863281 430.21875 986.652344 430.304688 986.445312 C 430.386719 986.242188 430.507812 986.0625 430.664062 985.902344 C 430.820312 985.746094 431.003906 985.625 431.207031 985.542969 C 431.410156 985.457031 431.625 985.414062 431.847656 985.414062 C 432.066406 985.414062 432.28125 985.457031 432.484375 985.542969 C 432.691406 985.625 432.871094 985.746094 433.027344 985.902344 C 433.183594 986.0625 433.304688 986.242188 433.390625 986.445312 Z M 433.390625 986.445312 " fill-opacity="1" fill-rule="nonzero"/><path fill="#000000" d="M 423.019531 981.453125 C 423.175781 981.609375 423.296875 981.789062 423.382812 981.992188 C 423.464844 982.199219 423.507812 982.410156 423.507812 982.632812 C 423.507812 982.855469 423.464844 983.070312 423.382812 983.273438 C 423.296875 983.476562 423.175781 983.660156 423.019531 983.816406 C 422.863281 983.972656 422.683594 984.09375 422.476562 984.175781 C 422.273438 984.261719 422.058594 984.304688 421.839844 984.304688 C 421.617188 984.304688 421.402344 984.261719 421.199219 984.175781 C 420.996094 984.09375 420.8125 983.972656 420.65625 983.816406 C 420.5 983.660156 420.378906 983.476562 420.296875 983.273438 C 420.210938 983.070312 420.167969 982.855469 420.167969 982.632812 C 420.167969 982.410156 420.210938 982.199219 420.296875 981.992188 C 420.378906 981.789062 420.5 981.609375 420.65625 981.453125 C 420.8125 981.296875 420.996094 981.175781 421.199219 981.089844 C 421.402344 981.003906 421.617188 980.960938 421.839844 980.960938 C 422.058594 980.960938 422.273438 981.003906 422.476562 981.089844 C 422.683594 981.175781 422.863281 981.296875 423.019531 981.453125 Z M 423.019531 981.453125 " fill-opacity="1" fill-rule="nonzero"/><path fill="#000000" d="M 450.175781 1006.84375 C 450.210938 1007.0625 450.203125 1007.28125 450.152344 1007.496094 C 450.101562 1007.710938 450.011719 1007.910156 449.878906 1008.089844 C 449.75 1008.269531 449.59375 1008.417969 449.402344 1008.53125 C 449.214844 1008.648438 449.011719 1008.726562 448.792969 1008.761719 C 448.574219 1008.796875 448.355469 1008.789062 448.140625 1008.738281 C 447.925781 1008.6875 447.726562 1008.597656 447.546875 1008.464844 C 447.367188 1008.335938 447.222656 1008.179688 447.105469 1007.988281 C 446.988281 1007.800781 446.914062 1007.597656 446.875 1007.378906 C 446.839844 1007.160156 446.847656 1006.941406 446.898438 1006.726562 C 446.949219 1006.511719 447.039062 1006.3125 447.171875 1006.132812 C 447.300781 1005.953125 447.460938 1005.804688 447.648438 1005.6875 C 447.835938 1005.574219 448.039062 1005.496094 448.257812 1005.460938 C 448.476562 1005.425781 448.695312 1005.433594 448.910156 1005.484375 C 449.125 1005.535156 449.324219 1005.625 449.503906 1005.753906 C 449.683594 1005.882812 449.828125 1006.042969 449.945312 1006.230469 C 450.0625 1006.421875 450.140625 1006.625 450.175781 1006.84375 Z M 450.175781 1006.84375 " fill-opacity="1" fill-rule="nonzero"/><path fill="#000000" d="M 439.078125 1006 C 439.078125 1006.222656 439.035156 1006.433594 438.949219 1006.640625 C 438.867188 1006.84375 438.746094 1007.023438 438.589844 1007.183594 C 438.433594 1007.339844 438.25 1007.460938 438.046875 1007.542969 C 437.84375 1007.628906 437.628906 1007.671875 437.40625 1007.671875 C 437.1875 1007.671875 436.972656 1007.628906 436.769531 1007.542969 C 436.5625 1007.460938 436.382812 1007.339844 436.226562 1007.183594 C 436.070312 1007.023438 435.949219 1006.84375 435.863281 1006.640625 C 435.78125 1006.433594 435.738281 1006.222656 435.738281 1006 C 435.738281 1005.777344 435.78125 1005.566406 435.863281 1005.359375 C 435.949219 1005.15625 436.070312 1004.976562 436.226562 1004.816406 C 436.382812 1004.660156 436.5625 1004.539062 436.769531 1004.457031 C 436.972656 1004.371094 437.1875 1004.328125 437.40625 1004.328125 C 437.628906 1004.328125 437.84375 1004.371094 438.046875 1004.457031 C 438.25 1004.539062 438.433594 1004.660156 438.589844 1004.816406 C 438.746094 1004.976562 438.867188 1005.15625 438.949219 1005.359375 C 439.035156 1005.566406 439.078125 1005.777344 439.078125 1006 Z M 439.078125 1006 " fill-opacity="1" fill-rule="nonzero"/><path fill="#000000" d="M 451.234375 983.261719 C 451.296875 983.472656 451.316406 983.691406 451.296875 983.910156 C 451.273438 984.128906 451.210938 984.339844 451.105469 984.535156 C 451.003906 984.730469 450.863281 984.898438 450.691406 985.039062 C 450.523438 985.179688 450.332031 985.28125 450.117188 985.34375 C 449.90625 985.410156 449.691406 985.429688 449.46875 985.410156 C 449.25 985.386719 449.042969 985.324219 448.847656 985.21875 C 448.652344 985.113281 448.484375 984.976562 448.34375 984.804688 C 448.203125 984.632812 448.101562 984.441406 448.035156 984.230469 C 447.972656 984.015625 447.949219 983.800781 447.972656 983.582031 C 447.992188 983.359375 448.058594 983.152344 448.160156 982.957031 C 448.265625 982.761719 448.402344 982.59375 448.574219 982.453125 C 448.746094 982.3125 448.9375 982.210938 449.148438 982.144531 C 449.363281 982.082031 449.578125 982.058594 449.796875 982.082031 C 450.019531 982.105469 450.226562 982.167969 450.421875 982.273438 C 450.617188 982.375 450.785156 982.515625 450.925781 982.6875 C 451.066406 982.855469 451.167969 983.050781 451.234375 983.261719 Z M 451.234375 983.261719 " fill-opacity="1" fill-rule="nonzero"/><path fill="#000000" d="M 427.957031 1004.886719 C 427.957031 1005.109375 427.914062 1005.324219 427.832031 1005.527344 C 427.746094 1005.734375 427.625 1005.914062 427.46875 1006.070312 C 427.3125 1006.226562 427.132812 1006.347656 426.925781 1006.433594 C 426.722656 1006.515625 426.507812 1006.558594 426.289062 1006.558594 C 426.066406 1006.558594 425.851562 1006.515625 425.648438 1006.433594 C 425.445312 1006.347656 425.261719 1006.226562 425.105469 1006.070312 C 424.949219 1005.914062 424.828125 1005.734375 424.746094 1005.527344 C 424.660156 1005.324219 424.617188 1005.109375 424.617188 1004.886719 C 424.617188 1004.667969 424.660156 1004.453125 424.746094 1004.25 C 424.828125 1004.042969 424.949219 1003.863281 425.105469 1003.707031 C 425.261719 1003.550781 425.445312 1003.429688 425.648438 1003.34375 C 425.851562 1003.257812 426.066406 1003.214844 426.289062 1003.214844 C 426.507812 1003.214844 426.722656 1003.257812 426.925781 1003.34375 C 427.132812 1003.429688 427.3125 1003.550781 427.46875 1003.707031 C 427.625 1003.863281 427.746094 1004.042969 427.832031 1004.25 C 427.914062 1004.453125 427.957031 1004.667969 427.957031 1004.886719 Z M 427.957031 1004.886719 " fill-opacity="1" fill-rule="nonzero"/><path fill="#000000" d="M 441.917969 975.890625 C 442.078125 976.046875 442.195312 976.230469 442.28125 976.433594 C 442.367188 976.636719 442.410156 976.851562 442.410156 977.074219 C 442.410156 977.296875 442.367188 977.507812 442.28125 977.714844 C 442.195312 977.917969 442.078125 978.097656 441.917969 978.253906 C 441.761719 978.410156 441.582031 978.53125 441.378906 978.617188 C 441.171875 978.703125 440.960938 978.746094 440.738281 978.746094 C 440.515625 978.746094 440.304688 978.703125 440.097656 978.617188 C 439.894531 978.53125 439.714844 978.414062 439.558594 978.253906 C 439.402344 978.097656 439.28125 977.917969 439.195312 977.714844 C 439.109375 977.507812 439.066406 977.296875 439.066406 977.074219 C 439.066406 976.851562 439.109375 976.640625 439.195312 976.433594 C 439.28125 976.230469 439.402344 976.046875 439.558594 975.890625 C 439.714844 975.734375 439.894531 975.613281 440.097656 975.53125 C 440.304688 975.445312 440.515625 975.402344 440.738281 975.402344 C 440.960938 975.402344 441.171875 975.445312 441.378906 975.53125 C 441.582031 975.613281 441.761719 975.734375 441.917969 975.890625 Z M 441.917969 975.890625 " fill-opacity="1" fill-rule="nonzero"/><path fill="#000000" d="M 445.746094 983.746094 C 445.746094 981.597656 447.488281 979.851562 449.636719 979.851562 C 449.929688 979.851562 450.210938 979.882812 450.488281 979.945312 L 450.488281 957.273438 C 449.660156 957.085938 448.824219 956.929688 447.976562 956.808594 L 447.976562 972.625 L 444.265625 975.410156 C 444.507812 975.914062 444.640625 976.480469 444.640625 977.074219 C 444.640625 979.222656 442.898438 980.96875 440.75 980.96875 C 438.601562 980.96875 436.855469 979.222656 436.855469 977.074219 C 436.855469 974.925781 438.601562 973.179688 440.75 973.179688 C 441.488281 973.179688 442.183594 973.386719 442.769531 973.746094 L 445.753906 971.507812 L 445.753906 956.566406 C 445.019531 956.511719 444.277344 956.484375 443.53125 956.484375 C 441.644531 956.484375 439.785156 956.652344 437.972656 956.976562 L 437.972656 962.421875 C 439.285156 963.050781 440.195312 964.390625 440.195312 965.941406 C 440.195312 968.089844 438.453125 969.835938 436.304688 969.835938 C 434.15625 969.835938 432.410156 968.089844 432.410156 965.941406 C 432.410156 963.980469 433.863281 962.355469 435.742188 962.085938 L 435.742188 957.460938 C 431.574219 958.535156 427.675781 960.460938 424.265625 963.15625 L 424.632812 963.15625 L 424.632812 973.597656 L 433.527344 978.042969 L 433.527344 983.558594 C 434.839844 984.183594 435.75 985.523438 435.75 987.074219 C 435.75 989.226562 434.007812 990.972656 431.859375 990.972656 C 429.710938 990.972656 427.964844 989.226562 427.964844 987.074219 C 427.964844 985.113281 429.417969 983.488281 431.296875 983.21875 L 431.296875 979.417969 L 422.402344 974.972656 L 422.402344 964.753906 C 422.097656 965.03125 421.800781 965.3125 421.511719 965.601562 C 417.234375 969.882812 414.359375 975.179688 413.105469 980.957031 L 418.328125 980.957031 C 418.953125 979.640625 420.292969 978.730469 421.84375 978.730469 C 423.992188 978.730469 425.734375 980.476562 425.734375 982.628906 C 425.734375 984.777344 423.992188 986.523438 421.84375 986.523438 C 419.882812 986.523438 418.257812 985.066406 417.988281 983.1875 L 412.703125 983.1875 C 412.496094 984.648438 412.386719 986.132812 412.386719 987.636719 C 412.386719 988.761719 412.445312 989.871094 412.5625 990.972656 L 423.964844 990.972656 L 428.410156 995.417969 L 435.769531 995.417969 C 436.039062 993.53125 437.664062 992.082031 439.625 992.082031 C 441.773438 992.082031 443.515625 993.828125 443.515625 995.976562 C 443.515625 998.128906 441.773438 999.875 439.625 999.875 C 438.074219 999.875 436.734375 998.964844 436.109375 997.648438 L 427.488281 997.648438 L 423.042969 993.203125 L 412.878906 993.203125 C 413.921875 999.042969 416.621094 1004.449219 420.730469 1008.863281 L 422.859375 1006.734375 C 422.5625 1006.183594 422.386719 1005.554688 422.386719 1004.882812 C 422.386719 1002.730469 424.132812 1000.984375 426.28125 1000.984375 C 428.429688 1000.984375 430.175781 1002.730469 430.175781 1004.882812 C 430.175781 1007.03125 428.429688 1008.777344 426.28125 1008.777344 C 425.613281 1008.777344 424.980469 1008.609375 424.429688 1008.304688 L 422.300781 1010.433594 C 426.988281 1014.808594 432.800781 1017.578125 439.0625 1018.476562 L 439.0625 1012.578125 L 436.1875 1009.699219 C 434.632812 1009.1875 433.507812 1007.726562 433.507812 1006 C 433.507812 1003.851562 435.253906 1002.105469 437.402344 1002.105469 C 439.550781 1002.105469 441.292969 1003.851562 441.292969 1006 C 441.292969 1007.53125 440.410156 1008.851562 439.125 1009.492188 L 441.292969 1011.660156 L 441.292969 1018.71875 C 442.027344 1018.773438 442.769531 1018.796875 443.515625 1018.796875 C 445.886719 1018.796875 448.21875 1018.535156 450.472656 1018.023438 L 450.472656 1010.480469 C 449.902344 1010.820312 449.226562 1011.015625 448.515625 1011.015625 C 446.363281 1011.015625 444.621094 1009.269531 444.621094 1007.117188 C 444.621094 1004.96875 446.363281 1003.222656 448.515625 1003.222656 C 449.226562 1003.222656 449.894531 1003.417969 450.472656 1003.753906 L 450.472656 987.5625 C 450.203125 987.621094 449.921875 987.65625 449.625 987.65625 C 447.488281 987.640625 445.746094 985.894531 445.746094 983.746094 Z M 445.746094 983.746094 " fill-opacity="1" fill-rule="nonzero"/><path fill="#000000" d="M 461.753906 1001.269531 C 462.386719 1001.011719 462.996094 1000.710938 463.574219 1000.367188 C 466.046875 998.902344 467.972656 996.691406 469.109375 993.996094 C 470.511719 990.667969 470.53125 986.996094 469.171875 983.652344 C 467.808594 980.308594 465.230469 977.695312 461.902344 976.292969 C 459.601562 975.320312 457.132812 975.011719 454.722656 975.367188 L 454.722656 979.722656 C 459.015625 978.800781 463.492188 981.0625 465.195312 985.269531 C 467.117188 989.980469 464.839844 995.378906 460.132812 997.292969 C 458.347656 998.019531 456.46875 998.140625 454.714844 997.765625 L 454.714844 1002.125 C 457.082031 1002.476562 459.492188 1002.183594 461.753906 1001.269531 Z M 461.753906 1001.269531 " fill-opacity="1" fill-rule="nonzero"/><path fill="#000000" d="M 488.097656 983.003906 L 481.914062 980.761719 L 480.304688 976.8125 L 483.164062 970.886719 C 483.554688 970.070312 483.394531 969.09375 482.761719 968.449219 L 477.257812 962.875 C 476.621094 962.226562 475.648438 962.050781 474.828125 962.4375 L 468.867188 965.226562 L 464.941406 963.566406 L 462.773438 957.355469 C 462.476562 956.5 461.667969 955.925781 460.765625 955.917969 L 454.714844 955.886719 L 454.714844 960.171875 L 459.230469 960.199219 L 461.210938 965.886719 C 461.410156 966.460938 461.84375 966.917969 462.402344 967.152344 L 468.078125 969.546875 C 468.636719 969.78125 469.269531 969.769531 469.816406 969.511719 L 475.265625 966.957031 L 478.640625 970.375 L 476.027344 975.800781 C 475.765625 976.347656 475.742188 976.980469 475.972656 977.539062 L 478.296875 983.253906 C 478.523438 983.8125 478.984375 984.25 479.550781 984.460938 L 485.207031 986.507812 L 485.179688 991.316406 L 479.496094 993.296875 C 478.921875 993.5 478.464844 993.929688 478.230469 994.488281 L 475.839844 1000.171875 C 475.601562 1000.730469 475.617188 1001.363281 475.871094 1001.910156 L 478.425781 1007.363281 L 475.007812 1010.738281 L 469.585938 1008.125 C 469.042969 1007.859375 468.410156 1007.839844 467.851562 1008.070312 L 462.140625 1010.394531 C 461.578125 1010.625 461.140625 1011.082031 460.933594 1011.648438 L 458.886719 1017.308594 L 454.722656 1017.28125 L 454.722656 1021.570312 L 460.375 1021.601562 C 461.285156 1021.609375 462.089844 1021.042969 462.402344 1020.1875 L 464.644531 1014 L 468.589844 1012.390625 L 474.511719 1015.253906 C 475.164062 1015.570312 475.925781 1015.53125 476.53125 1015.164062 C 476.679688 1015.078125 476.820312 1014.96875 476.941406 1014.847656 L 482.511719 1009.34375 C 483.160156 1008.703125 483.335938 1007.730469 482.949219 1006.910156 L 480.160156 1000.945312 L 481.820312 997.015625 L 488.027344 994.847656 C 488.882812 994.550781 489.457031 993.742188 489.464844 992.835938 L 489.511719 985.007812 C 489.515625 984.128906 488.953125 983.316406 488.097656 983.003906 Z M 488.097656 983.003906 " fill-opacity="1" fill-rule="nonzero"/><g fill="#000000" fill-opacity="1"><g transform="translate(267.529765, 1136.893355)"><g><path d="M 19.734375 -14.34375 L 19.734375 -9.234375 C 19.734375 -6.117188 18.972656 -3.726562 17.453125 -2.0625 C 15.929688 -0.394531 13.6875 0.4375 10.71875 0.4375 C 7.75 0.4375 5.503906 -0.394531 3.984375 -2.0625 C 2.460938 -3.726562 1.703125 -6.117188 1.703125 -9.234375 L 1.703125 -29.25 C 1.703125 -32.363281 2.460938 -34.753906 3.984375 -36.421875 C 5.503906 -38.085938 7.75 -38.921875 10.71875 -38.921875 C 13.6875 -38.921875 15.929688 -38.085938 17.453125 -36.421875 C 18.972656 -34.753906 19.734375 -32.363281 19.734375 -29.25 L 19.734375 -25.515625 L 14.015625 -25.515625 L 14.015625 -29.640625 C 14.015625 -31.023438 13.726562 -32.003906 13.15625 -32.578125 C 12.59375 -33.148438 11.835938 -33.4375 10.890625 -33.4375 C 9.929688 -33.4375 9.164062 -33.148438 8.59375 -32.578125 C 8.03125 -32.003906 7.75 -31.023438 7.75 -29.640625 L 7.75 -8.859375 C 7.75 -7.460938 8.03125 -6.488281 8.59375 -5.9375 C 9.164062 -5.382812 9.929688 -5.109375 10.890625 -5.109375 C 11.835938 -5.109375 12.59375 -5.382812 13.15625 -5.9375 C 13.726562 -6.488281 14.015625 -7.460938 14.015625 -8.859375 L 14.015625 -14.34375 Z M 19.734375 -14.34375 "/></g></g></g><g fill="#000000" fill-opacity="1"><g transform="translate(288.694258, 1136.893355)"><g><path d="M 7.859375 -12.75 L 0.21875 -38.484375 L 6.546875 -38.484375 L 11.15625 -20.953125 L 15.78125 -38.484375 L 21.546875 -38.484375 L 13.90625 -12.75 L 13.90625 0 L 7.859375 0 Z M 7.859375 -12.75 "/></g></g></g><g fill="#000000" fill-opacity="1"><g transform="translate(310.408481, 1136.893355)"><g><path d="M 11.328125 -38.484375 C 14.484375 -38.484375 16.765625 -37.75 18.171875 -36.28125 C 19.585938 -34.820312 20.296875 -32.609375 20.296875 -29.640625 L 20.296875 -28.265625 C 20.296875 -26.285156 19.984375 -24.648438 19.359375 -23.359375 C 18.734375 -22.078125 17.742188 -21.128906 16.390625 -20.515625 C 18.035156 -19.890625 19.195312 -18.867188 19.875 -17.453125 C 20.550781 -16.046875 20.890625 -14.316406 20.890625 -12.265625 L 20.890625 -9.125 C 20.890625 -6.15625 20.117188 -3.890625 18.578125 -2.328125 C 17.046875 -0.773438 14.757812 0 11.71875 0 L 2.203125 0 L 2.203125 -38.484375 Z M 8.25 -17.3125 L 8.25 -5.5 L 11.71875 -5.5 C 12.738281 -5.5 13.515625 -5.769531 14.046875 -6.3125 C 14.578125 -6.863281 14.84375 -7.859375 14.84375 -9.296875 L 14.84375 -12.640625 C 14.84375 -14.441406 14.539062 -15.671875 13.9375 -16.328125 C 13.332031 -16.984375 12.332031 -17.3125 10.9375 -17.3125 Z M 8.25 -32.984375 L 8.25 -22.8125 L 10.609375 -22.8125 C 11.742188 -22.8125 12.628906 -23.101562 13.265625 -23.6875 C 13.910156 -24.28125 14.234375 -25.347656 14.234375 -26.890625 L 14.234375 -29.03125 C 14.234375 -30.425781 13.984375 -31.429688 13.484375 -32.046875 C 12.992188 -32.671875 12.21875 -32.984375 11.15625 -32.984375 Z M 8.25 -32.984375 "/></g></g></g><g fill="#000000" fill-opacity="1"><g transform="translate(332.672434, 1136.893355)"><g><path d="M 8.25 -22.265625 L 16.546875 -22.265625 L 16.546875 -16.765625 L 8.25 -16.765625 L 8.25 -5.5 L 18.6875 -5.5 L 18.6875 0 L 2.203125 0 L 2.203125 -38.484375 L 18.6875 -38.484375 L 18.6875 -32.984375 L 8.25 -32.984375 Z M 8.25 -22.265625 "/></g></g></g><g fill="#000000" fill-opacity="1"><g transform="translate(352.847421, 1136.893355)"><g><path d="M 14.84375 0 C 14.769531 -0.257812 14.695312 -0.5 14.625 -0.71875 C 14.550781 -0.9375 14.484375 -1.207031 14.421875 -1.53125 C 14.367188 -1.863281 14.332031 -2.285156 14.3125 -2.796875 C 14.300781 -3.316406 14.296875 -3.960938 14.296875 -4.734375 L 14.296875 -10.78125 C 14.296875 -12.570312 13.984375 -13.832031 13.359375 -14.5625 C 12.734375 -15.300781 11.726562 -15.671875 10.34375 -15.671875 L 8.25 -15.671875 L 8.25 0 L 2.203125 0 L 2.203125 -38.484375 L 11.328125 -38.484375 C 14.484375 -38.484375 16.765625 -37.75 18.171875 -36.28125 C 19.585938 -34.820312 20.296875 -32.609375 20.296875 -29.640625 L 20.296875 -26.609375 C 20.296875 -22.648438 18.972656 -20.046875 16.328125 -18.796875 C 17.867188 -18.179688 18.921875 -17.164062 19.484375 -15.75 C 20.054688 -14.34375 20.34375 -12.628906 20.34375 -10.609375 L 20.34375 -4.671875 C 20.34375 -3.722656 20.378906 -2.890625 20.453125 -2.171875 C 20.523438 -1.453125 20.707031 -0.726562 21 0 Z M 8.25 -32.984375 L 8.25 -21.171875 L 10.609375 -21.171875 C 11.742188 -21.171875 12.628906 -21.460938 13.265625 -22.046875 C 13.910156 -22.628906 14.234375 -23.691406 14.234375 -25.234375 L 14.234375 -29.03125 C 14.234375 -30.425781 13.984375 -31.429688 13.484375 -32.046875 C 12.992188 -32.671875 12.21875 -32.984375 11.15625 -32.984375 Z M 8.25 -32.984375 "/></g></g></g><g fill="#000000" fill-opacity="1"><g transform="translate(374.891473, 1136.893355)"><g/></g></g><g fill="#000000" fill-opacity="1"><g transform="translate(383.357274, 1136.893355)"><g><path d="M 11.109375 -38.484375 C 14.148438 -38.484375 16.410156 -37.675781 17.890625 -36.0625 C 19.378906 -34.457031 20.125 -32.097656 20.125 -28.984375 L 20.125 -23.96875 C 20.125 -20.851562 19.378906 -18.488281 17.890625 -16.875 C 16.410156 -15.257812 14.148438 -14.453125 11.109375 -14.453125 L 8.25 -14.453125 L 8.25 0 L 2.203125 0 L 2.203125 -38.484375 Z M 8.25 -32.984375 L 8.25 -19.953125 L 11.109375 -19.953125 C 12.054688 -19.953125 12.785156 -20.207031 13.296875 -20.71875 C 13.816406 -21.238281 14.078125 -22.195312 14.078125 -23.59375 L 14.078125 -29.359375 C 14.078125 -30.753906 13.816406 -31.707031 13.296875 -32.21875 C 12.785156 -32.726562 12.054688 -32.984375 11.109375 -32.984375 Z M 8.25 -32.984375 "/></g></g></g><g fill="#000000" fill-opacity="1"><g transform="translate(404.301883, 1136.893355)"><g><path d="M 8.25 0 L 2.203125 0 L 2.203125 -38.484375 L 8.25 -38.484375 L 8.25 -22 L 15.125 -22 L 15.125 -38.484375 L 21.28125 -38.484375 L 21.28125 0 L 15.125 0 L 15.125 -16.5 L 8.25 -16.5 Z M 8.25 0 "/></g></g></g><g fill="#000000" fill-opacity="1"><g transform="translate(427.720265, 1136.893355)"><g><path d="M 7.859375 -12.75 L 0.21875 -38.484375 L 6.546875 -38.484375 L 11.15625 -20.953125 L 15.78125 -38.484375 L 21.546875 -38.484375 L 13.90625 -12.75 L 13.90625 0 L 7.859375 0 Z M 7.859375 -12.75 "/></g></g></g><g fill="#000000" fill-opacity="1"><g transform="translate(449.434492, 1136.893355)"><g><path d="M 1.421875 -29.25 C 1.421875 -32.363281 2.164062 -34.753906 3.65625 -36.421875 C 5.144531 -38.085938 7.375 -38.921875 10.34375 -38.921875 C 13.3125 -38.921875 15.535156 -38.085938 17.015625 -36.421875 C 18.503906 -34.753906 19.25 -32.363281 19.25 -29.25 L 19.25 -28.046875 L 13.53125 -28.046875 L 13.53125 -29.640625 C 13.53125 -31.023438 13.265625 -32.003906 12.734375 -32.578125 C 12.203125 -33.148438 11.457031 -33.4375 10.5 -33.4375 C 9.550781 -33.4375 8.8125 -33.148438 8.28125 -32.578125 C 7.75 -32.003906 7.484375 -31.023438 7.484375 -29.640625 C 7.484375 -28.316406 7.773438 -27.148438 8.359375 -26.140625 C 8.941406 -25.140625 9.671875 -24.1875 10.546875 -23.28125 C 11.429688 -22.382812 12.378906 -21.488281 13.390625 -20.59375 C 14.398438 -19.695312 15.34375 -18.71875 16.21875 -17.65625 C 17.101562 -16.59375 17.835938 -15.378906 18.421875 -14.015625 C 19.003906 -12.660156 19.296875 -11.066406 19.296875 -9.234375 C 19.296875 -6.117188 18.535156 -3.726562 17.015625 -2.0625 C 15.492188 -0.394531 13.25 0.4375 10.28125 0.4375 C 7.3125 0.4375 5.066406 -0.394531 3.546875 -2.0625 C 2.023438 -3.726562 1.265625 -6.117188 1.265625 -9.234375 L 1.265625 -11.609375 L 6.984375 -11.609375 L 6.984375 -8.859375 C 6.984375 -7.460938 7.265625 -6.488281 7.828125 -5.9375 C 8.398438 -5.382812 9.160156 -5.109375 10.109375 -5.109375 C 11.066406 -5.109375 11.828125 -5.382812 12.390625 -5.9375 C 12.960938 -6.488281 13.25 -7.460938 13.25 -8.859375 C 13.25 -10.171875 12.953125 -11.332031 12.359375 -12.34375 C 11.773438 -13.351562 11.046875 -14.304688 10.171875 -15.203125 C 9.296875 -16.097656 8.351562 -16.992188 7.34375 -17.890625 C 6.332031 -18.796875 5.382812 -19.78125 4.5 -20.84375 C 3.625 -21.90625 2.890625 -23.113281 2.296875 -24.46875 C 1.710938 -25.820312 1.421875 -27.414062 1.421875 -29.25 Z M 1.421875 -29.25 "/></g></g></g><g fill="#000000" fill-opacity="1"><g transform="translate(469.939304, 1136.893355)"><g><path d="M 2.203125 -38.484375 L 8.25 -38.484375 L 8.25 0 L 2.203125 0 Z M 2.203125 -38.484375 "/></g></g></g><g fill="#000000" fill-opacity="1"><g transform="translate(480.329148, 1136.893355)"><g><path d="M 19.734375 -14.34375 L 19.734375 -9.234375 C 19.734375 -6.117188 18.972656 -3.726562 17.453125 -2.0625 C 15.929688 -0.394531 13.6875 0.4375 10.71875 0.4375 C 7.75 0.4375 5.503906 -0.394531 3.984375 -2.0625 C 2.460938 -3.726562 1.703125 -6.117188 1.703125 -9.234375 L 1.703125 -29.25 C 1.703125 -32.363281 2.460938 -34.753906 3.984375 -36.421875 C 5.503906 -38.085938 7.75 -38.921875 10.71875 -38.921875 C 13.6875 -38.921875 15.929688 -38.085938 17.453125 -36.421875 C 18.972656 -34.753906 19.734375 -32.363281 19.734375 -29.25 L 19.734375 -25.515625 L 14.015625 -25.515625 L 14.015625 -29.640625 C 14.015625 -31.023438 13.726562 -32.003906 13.15625 -32.578125 C 12.59375 -33.148438 11.835938 -33.4375 10.890625 -33.4375 C 9.929688 -33.4375 9.164062 -33.148438 8.59375 -32.578125 C 8.03125 -32.003906 7.75 -31.023438 7.75 -29.640625 L 7.75 -8.859375 C 7.75 -7.460938 8.03125 -6.488281 8.59375 -5.9375 C 9.164062 -5.382812 9.929688 -5.109375 10.890625 -5.109375 C 11.835938 -5.109375 12.59375 -5.382812 13.15625 -5.9375 C 13.726562 -6.488281 14.015625 -7.460938 14.015625 -8.859375 L 14.015625 -14.34375 Z M 19.734375 -14.34375 "/></g></g></g><g fill="#000000" fill-opacity="1"><g transform="translate(501.493634, 1136.893355)"><g><path d="M 21.78125 0 L 15.671875 0 L 14.625 -6.984375 L 7.203125 -6.984375 L 6.15625 0 L 0.609375 0 L 6.765625 -38.484375 L 15.609375 -38.484375 Z M 7.96875 -12.203125 L 13.796875 -12.203125 L 10.890625 -31.671875 Z M 7.96875 -12.203125 "/></g></g></g><g fill="#000000" fill-opacity="1"><g transform="translate(523.812557, 1136.893355)"><g><path d="M 2.203125 -38.484375 L 8.25 -38.484375 L 8.25 -5.5 L 18.203125 -5.5 L 18.203125 0 L 2.203125 0 Z M 2.203125 -38.484375 "/></g></g></g><g fill="#000000" fill-opacity="1"><g transform="translate(270.300877, 1202.322561)"><g><path d="M 1.71875 -35.109375 C 1.71875 -38.847656 2.609375 -41.71875 4.390625 -43.71875 C 6.171875 -45.71875 8.84375 -46.71875 12.40625 -46.71875 C 15.96875 -46.71875 18.640625 -45.71875 20.421875 -43.71875 C 22.203125 -41.71875 23.09375 -38.847656 23.09375 -35.109375 L 23.09375 -33.65625 L 16.234375 -33.65625 L 16.234375 -35.5625 C 16.234375 -37.238281 15.910156 -38.414062 15.265625 -39.09375 C 14.628906 -39.78125 13.742188 -40.125 12.609375 -40.125 C 11.460938 -40.125 10.566406 -39.78125 9.921875 -39.09375 C 9.285156 -38.414062 8.96875 -37.238281 8.96875 -35.5625 C 8.96875 -33.976562 9.316406 -32.582031 10.015625 -31.375 C 10.722656 -30.164062 11.601562 -29.019531 12.65625 -27.9375 C 13.71875 -26.863281 14.851562 -25.785156 16.0625 -24.703125 C 17.269531 -23.628906 18.398438 -22.453125 19.453125 -21.171875 C 20.515625 -19.898438 21.394531 -18.453125 22.09375 -16.828125 C 22.800781 -15.203125 23.15625 -13.285156 23.15625 -11.078125 C 23.15625 -7.347656 22.242188 -4.476562 20.421875 -2.46875 C 18.597656 -0.46875 15.90625 0.53125 12.34375 0.53125 C 8.78125 0.53125 6.082031 -0.46875 4.25 -2.46875 C 2.425781 -4.476562 1.515625 -7.347656 1.515625 -11.078125 L 1.515625 -13.921875 L 8.375 -13.921875 L 8.375 -10.625 C 8.375 -8.945312 8.710938 -7.78125 9.390625 -7.125 C 10.078125 -6.46875 10.992188 -6.140625 12.140625 -6.140625 C 13.285156 -6.140625 14.195312 -6.46875 14.875 -7.125 C 15.5625 -7.78125 15.90625 -8.945312 15.90625 -10.625 C 15.90625 -12.207031 15.550781 -13.601562 14.84375 -14.8125 C 14.144531 -16.019531 13.265625 -17.160156 12.203125 -18.234375 C 11.148438 -19.316406 10.019531 -20.394531 8.8125 -21.46875 C 7.601562 -22.550781 6.46875 -23.726562 5.40625 -25 C 4.351562 -26.28125 3.472656 -27.734375 2.765625 -29.359375 C 2.066406 -30.984375 1.71875 -32.898438 1.71875 -35.109375 Z M 1.71875 -35.109375 "/></g></g></g><g fill="#000000" fill-opacity="1"><g transform="translate(294.909892, 1202.322561)"><g><path d="M 9.4375 -15.3125 L 0.265625 -46.1875 L 7.859375 -46.1875 L 13.390625 -25.140625 L 18.9375 -46.1875 L 25.859375 -46.1875 L 16.6875 -15.3125 L 16.6875 0 L 9.4375 0 Z M 9.4375 -15.3125 "/></g></g></g><g fill="#000000" fill-opacity="1"><g transform="translate(320.970382, 1202.322561)"><g><path d="M 1.71875 -35.109375 C 1.71875 -38.847656 2.609375 -41.71875 4.390625 -43.71875 C 6.171875 -45.71875 8.84375 -46.71875 12.40625 -46.71875 C 15.96875 -46.71875 18.640625 -45.71875 20.421875 -43.71875 C 22.203125 -41.71875 23.09375 -38.847656 23.09375 -35.109375 L 23.09375 -33.65625 L 16.234375 -33.65625 L 16.234375 -35.5625 C 16.234375 -37.238281 15.910156 -38.414062 15.265625 -39.09375 C 14.628906 -39.78125 13.742188 -40.125 12.609375 -40.125 C 11.460938 -40.125 10.566406 -39.78125 9.921875 -39.09375 C 9.285156 -38.414062 8.96875 -37.238281 8.96875 -35.5625 C 8.96875 -33.976562 9.316406 -32.582031 10.015625 -31.375 C 10.722656 -30.164062 11.601562 -29.019531 12.65625 -27.9375 C 13.71875 -26.863281 14.851562 -25.785156 16.0625 -24.703125 C 17.269531 -23.628906 18.398438 -22.453125 19.453125 -21.171875 C 20.515625 -19.898438 21.394531 -18.453125 22.09375 -16.828125 C 22.800781 -15.203125 23.15625 -13.285156 23.15625 -11.078125 C 23.15625 -7.347656 22.242188 -4.476562 20.421875 -2.46875 C 18.597656 -0.46875 15.90625 0.53125 12.34375 0.53125 C 8.78125 0.53125 6.082031 -0.46875 4.25 -2.46875 C 2.425781 -4.476562 1.515625 -7.347656 1.515625 -11.078125 L 1.515625 -13.921875 L 8.375 -13.921875 L 8.375 -10.625 C 8.375 -8.945312 8.710938 -7.78125 9.390625 -7.125 C 10.078125 -6.46875 10.992188 -6.140625 12.140625 -6.140625 C 13.285156 -6.140625 14.195312 -6.46875 14.875 -7.125 C 15.5625 -7.78125 15.90625 -8.945312 15.90625 -10.625 C 15.90625 -12.207031 15.550781 -13.601562 14.84375 -14.8125 C 14.144531 -16.019531 13.265625 -17.160156 12.203125 -18.234375 C 11.148438 -19.316406 10.019531 -20.394531 8.8125 -21.46875 C 7.601562 -22.550781 6.46875 -23.726562 5.40625 -25 C 4.351562 -26.28125 3.472656 -27.734375 2.765625 -29.359375 C 2.066406 -30.984375 1.71875 -32.898438 1.71875 -35.109375 Z M 1.71875 -35.109375 "/></g></g></g><g fill="#000000" fill-opacity="1"><g transform="translate(345.579399, 1202.322561)"><g><path d="M 0.53125 -46.1875 L 22.96875 -46.1875 L 22.96875 -39.59375 L 15.375 -39.59375 L 15.375 0 L 8.109375 0 L 8.109375 -39.59375 L 0.53125 -39.59375 Z M 0.53125 -46.1875 "/></g></g></g><g fill="#000000" fill-opacity="1"><g transform="translate(369.000851, 1202.322561)"><g><path d="M 9.890625 -26.71875 L 19.859375 -26.71875 L 19.859375 -20.125 L 9.890625 -20.125 L 9.890625 -6.59375 L 22.4375 -6.59375 L 22.4375 0 L 2.640625 0 L 2.640625 -46.1875 L 22.4375 -46.1875 L 22.4375 -39.59375 L 9.890625 -39.59375 Z M 9.890625 -26.71875 "/></g></g></g><g fill="#000000" fill-opacity="1"><g transform="translate(393.214015, 1202.322561)"><g><path d="M 18.015625 -13.390625 L 22.96875 -46.1875 L 33.0625 -46.1875 L 33.0625 0 L 26.203125 0 L 26.203125 -33.125 L 21.1875 0 L 14.3125 0 L 8.90625 -32.65625 L 8.90625 0 L 2.578125 0 L 2.578125 -46.1875 L 12.671875 -46.1875 Z M 18.015625 -13.390625 "/></g></g></g><g fill="#000000" fill-opacity="1"><g transform="translate(428.841024, 1202.322561)"><g/></g></g><g fill="#000000" fill-opacity="1"><g transform="translate(439.001319, 1202.322561)"><g><path d="M 23.6875 -17.21875 L 23.6875 -11.078125 C 23.6875 -7.347656 22.773438 -4.476562 20.953125 -2.46875 C 19.128906 -0.46875 16.429688 0.53125 12.859375 0.53125 C 9.296875 0.53125 6.601562 -0.46875 4.78125 -2.46875 C 2.957031 -4.476562 2.046875 -7.347656 2.046875 -11.078125 L 2.046875 -35.109375 C 2.046875 -38.847656 2.957031 -41.71875 4.78125 -43.71875 C 6.601562 -45.71875 9.296875 -46.71875 12.859375 -46.71875 C 16.429688 -46.71875 19.128906 -45.71875 20.953125 -43.71875 C 22.773438 -41.71875 23.6875 -38.847656 23.6875 -35.109375 L 23.6875 -30.609375 L 16.828125 -30.609375 L 16.828125 -35.5625 C 16.828125 -37.238281 16.484375 -38.414062 15.796875 -39.09375 C 15.117188 -39.78125 14.207031 -40.125 13.0625 -40.125 C 11.914062 -40.125 11 -39.78125 10.3125 -39.09375 C 9.632812 -38.414062 9.296875 -37.238281 9.296875 -35.5625 L 9.296875 -10.625 C 9.296875 -8.945312 9.632812 -7.78125 10.3125 -7.125 C 11 -6.46875 11.914062 -6.140625 13.0625 -6.140625 C 14.207031 -6.140625 15.117188 -6.46875 15.796875 -7.125 C 16.484375 -7.78125 16.828125 -8.945312 16.828125 -10.625 L 16.828125 -17.21875 Z M 23.6875 -17.21875 "/></g></g></g><g fill="#000000" fill-opacity="1"><g transform="translate(464.402052, 1202.322561)"><g><path d="M 2.640625 -46.1875 L 9.890625 -46.1875 L 9.890625 -6.59375 L 21.84375 -6.59375 L 21.84375 0 L 2.640625 0 Z M 2.640625 -46.1875 "/></g></g></g><g fill="#000000" fill-opacity="1"><g transform="translate(486.701917, 1202.322561)"><g><path d="M 9.5625 -46.1875 L 9.5625 -10.5625 C 9.5625 -8.882812 9.898438 -7.71875 10.578125 -7.0625 C 11.265625 -6.40625 12.179688 -6.078125 13.328125 -6.078125 C 14.472656 -6.078125 15.382812 -6.40625 16.0625 -7.0625 C 16.75 -7.71875 17.09375 -8.882812 17.09375 -10.5625 L 17.09375 -46.1875 L 23.953125 -46.1875 L 23.953125 -11.015625 C 23.953125 -7.273438 23.035156 -4.40625 21.203125 -2.40625 C 19.378906 -0.40625 16.6875 0.59375 13.125 0.59375 C 9.5625 0.59375 6.867188 -0.40625 5.046875 -2.40625 C 3.222656 -4.40625 2.3125 -7.273438 2.3125 -11.015625 L 2.3125 -46.1875 Z M 9.5625 -46.1875 "/></g></g></g><g fill="#000000" fill-opacity="1"><g transform="translate(512.894348, 1202.322561)"><g><path d="M 13.59375 -46.1875 C 17.375 -46.1875 20.109375 -45.304688 21.796875 -43.546875 C 23.492188 -41.785156 24.34375 -39.125 24.34375 -35.5625 L 24.34375 -33.921875 C 24.34375 -31.546875 23.96875 -29.585938 23.21875 -28.046875 C 22.476562 -26.503906 21.289062 -25.359375 19.65625 -24.609375 C 21.632812 -23.859375 23.03125 -22.632812 23.84375 -20.9375 C 24.664062 -19.25 25.078125 -17.175781 25.078125 -14.71875 L 25.078125 -10.953125 C 25.078125 -7.390625 24.148438 -4.671875 22.296875 -2.796875 C 20.453125 -0.929688 17.707031 0 14.0625 0 L 2.640625 0 L 2.640625 -46.1875 Z M 9.890625 -20.78125 L 9.890625 -6.59375 L 14.0625 -6.59375 C 15.289062 -6.59375 16.222656 -6.921875 16.859375 -7.578125 C 17.492188 -8.242188 17.8125 -9.4375 17.8125 -11.15625 L 17.8125 -15.171875 C 17.8125 -17.328125 17.445312 -18.800781 16.71875 -19.59375 C 16 -20.382812 14.800781 -20.78125 13.125 -20.78125 Z M 9.890625 -39.59375 L 9.890625 -27.390625 L 12.734375 -27.390625 C 14.097656 -27.390625 15.164062 -27.738281 15.9375 -28.4375 C 16.707031 -29.144531 17.09375 -30.421875 17.09375 -32.265625 L 17.09375 -34.84375 C 17.09375 -36.507812 16.796875 -37.71875 16.203125 -38.46875 C 15.609375 -39.21875 14.671875 -39.59375 13.390625 -39.59375 Z M 9.890625 -39.59375 "/></g></g></g><g fill="#000000" fill-opacity="1"><g transform="translate(274.48769, 1246.371544)"><g><path d="M 8.40625 -12.078125 C 8.113281 -12.472656 7.78125 -12.785156 7.40625 -13.015625 C 7.03125 -13.242188 6.585938 -13.359375 6.078125 -13.359375 C 5.554688 -13.359375 5.109375 -13.1875 4.734375 -12.84375 C 4.367188 -12.5 4.1875 -12.085938 4.1875 -11.609375 C 4.1875 -11.171875 4.367188 -10.796875 4.734375 -10.484375 C 5.097656 -10.179688 5.632812 -9.890625 6.34375 -9.609375 C 7.582031 -9.109375 8.457031 -8.625 8.96875 -8.15625 C 9.476562 -7.6875 9.832031 -7.1875 10.03125 -6.65625 C 10.226562 -6.125 10.328125 -5.535156 10.328125 -4.890625 C 10.328125 -3.316406 9.863281 -2.039062 8.9375 -1.0625 C 8.007812 -0.0820312 6.773438 0.40625 5.234375 0.40625 C 4.171875 0.40625 3.242188 0.128906 2.453125 -0.421875 C 1.671875 -0.972656 1.007812 -1.703125 0.46875 -2.609375 L 2.421875 -4.515625 C 2.660156 -3.859375 3.035156 -3.316406 3.546875 -2.890625 C 4.066406 -2.472656 4.625 -2.265625 5.21875 -2.265625 C 5.789062 -2.265625 6.265625 -2.472656 6.640625 -2.890625 C 7.023438 -3.304688 7.21875 -3.84375 7.21875 -4.5 C 7.21875 -5.070312 7.035156 -5.53125 6.671875 -5.875 C 6.316406 -6.21875 5.789062 -6.523438 5.09375 -6.796875 C 3.550781 -7.390625 2.492188 -8.015625 1.921875 -8.671875 C 1.347656 -9.328125 1.0625 -10.191406 1.0625 -11.265625 C 1.0625 -12.085938 1.253906 -12.851562 1.640625 -13.5625 C 2.023438 -14.269531 2.566406 -14.835938 3.265625 -15.265625 C 3.960938 -15.691406 4.738281 -15.90625 5.59375 -15.90625 C 6.34375 -15.90625 7.128906 -15.734375 7.953125 -15.390625 C 8.785156 -15.046875 9.410156 -14.640625 9.828125 -14.171875 Z M 8.40625 -12.078125 "/></g></g></g><g fill="#000000" fill-opacity="1"><g transform="translate(285.081646, 1246.371544)"><g><path d="M 0.90625 -14.328125 C 0.90625 -14.773438 1.066406 -15.171875 1.390625 -15.515625 C 1.722656 -15.859375 2.128906 -16.03125 2.609375 -16.03125 C 3.085938 -16.03125 3.488281 -15.859375 3.8125 -15.515625 C 4.144531 -15.171875 4.3125 -14.773438 4.3125 -14.328125 C 4.3125 -13.847656 4.144531 -13.441406 3.8125 -13.109375 C 3.488281 -12.773438 3.085938 -12.609375 2.609375 -12.609375 C 2.128906 -12.609375 1.722656 -12.773438 1.390625 -13.109375 C 1.066406 -13.441406 0.90625 -13.847656 0.90625 -14.328125 Z M 4.046875 -10.09375 L 4.046875 0 L 1.171875 0 L 1.171875 -10.09375 Z M 4.046875 -10.09375 "/></g></g></g><g fill="#000000" fill-opacity="1"><g transform="translate(290.070572, 1246.371544)"><g><path d="M 3.90625 -17.421875 L 3.90625 0 L 1.03125 0 L 1.03125 -17.421875 Z M 3.90625 -17.421875 "/></g></g></g><g fill="#000000" fill-opacity="1"><g transform="translate(294.772056, 1246.371544)"><g><path d="M 0.90625 -14.328125 C 0.90625 -14.773438 1.066406 -15.171875 1.390625 -15.515625 C 1.722656 -15.859375 2.128906 -16.03125 2.609375 -16.03125 C 3.085938 -16.03125 3.488281 -15.859375 3.8125 -15.515625 C 4.144531 -15.171875 4.3125 -14.773438 4.3125 -14.328125 C 4.3125 -13.847656 4.144531 -13.441406 3.8125 -13.109375 C 3.488281 -12.773438 3.085938 -12.609375 2.609375 -12.609375 C 2.128906 -12.609375 1.722656 -12.773438 1.390625 -13.109375 C 1.066406 -13.441406 0.90625 -13.847656 0.90625 -14.328125 Z M 4.046875 -10.09375 L 4.046875 0 L 1.171875 0 L 1.171875 -10.09375 Z M 4.046875 -10.09375 "/></g></g></g><g fill="#000000" fill-opacity="1"><g transform="translate(299.760983, 1246.371544)"><g><path d="M 7.640625 -9.125 L 7.640625 -10.09375 L 10.515625 -10.09375 L 10.515625 -0.515625 C 10.515625 1.390625 10.109375 2.847656 9.296875 3.859375 C 8.492188 4.878906 7.269531 5.390625 5.625 5.390625 C 4.238281 5.390625 3.0625 5 2.09375 4.21875 C 1.132812 3.4375 0.613281 2.425781 0.53125 1.1875 L 3.578125 1.1875 C 3.640625 1.726562 3.847656 2.15625 4.203125 2.46875 C 4.566406 2.789062 5.019531 2.953125 5.5625 2.953125 C 6.332031 2.953125 6.867188 2.707031 7.171875 2.21875 C 7.484375 1.726562 7.640625 1.007812 7.640625 0.0625 L 7.640625 -1 L 7.609375 -1 C 7.304688 -0.59375 6.90625 -0.269531 6.40625 -0.03125 C 5.90625 0.207031 5.382812 0.328125 4.84375 0.328125 C 3.5 0.328125 2.40625 -0.171875 1.5625 -1.171875 C 0.726562 -2.179688 0.3125 -3.445312 0.3125 -4.96875 C 0.3125 -5.96875 0.507812 -6.890625 0.90625 -7.734375 C 1.3125 -8.585938 1.875 -9.25 2.59375 -9.71875 C 3.3125 -10.1875 4.113281 -10.421875 5 -10.421875 C 5.476562 -10.421875 5.957031 -10.300781 6.4375 -10.0625 C 6.925781 -9.832031 7.316406 -9.519531 7.609375 -9.125 Z M 5.59375 -7.875 C 4.9375 -7.875 4.375 -7.59375 3.90625 -7.03125 C 3.445312 -6.46875 3.21875 -5.800781 3.21875 -5.03125 C 3.21875 -4.28125 3.445312 -3.625 3.90625 -3.0625 C 4.375 -2.5 4.941406 -2.21875 5.609375 -2.21875 C 6.265625 -2.21875 6.828125 -2.492188 7.296875 -3.046875 C 7.765625 -3.609375 8 -4.269531 8 -5.03125 C 8 -5.8125 7.765625 -6.476562 7.296875 -7.03125 C 6.828125 -7.59375 6.257812 -7.875 5.59375 -7.875 Z M 5.59375 -7.875 "/></g></g></g><g fill="#000000" fill-opacity="1"><g transform="translate(311.094055, 1246.371544)"><g><path d="M 3.84375 -10.09375 L 3.84375 -4.546875 C 3.84375 -2.910156 4.390625 -2.09375 5.484375 -2.09375 C 6.578125 -2.09375 7.125 -2.910156 7.125 -4.546875 L 7.125 -10.09375 L 10 -10.09375 L 10 -4.0625 C 10 -2.6875 9.628906 -1.609375 8.890625 -0.828125 C 8.148438 -0.0546875 7.015625 0.328125 5.484375 0.328125 C 3.960938 0.328125 2.828125 -0.0625 2.078125 -0.84375 C 1.335938 -1.625 0.96875 -2.695312 0.96875 -4.0625 L 0.96875 -10.09375 Z M 3.84375 -10.09375 "/></g></g></g><g fill="#000000" fill-opacity="1"><g transform="translate(321.872786, 1246.371544)"><g><path d="M 7.296875 -7.5 C 6.941406 -7.75 6.546875 -7.875 6.109375 -7.875 C 5.367188 -7.875 4.816406 -7.625 4.453125 -7.125 C 4.085938 -6.625 3.90625 -5.796875 3.90625 -4.640625 L 3.90625 0 L 1.03125 0 L 1.03125 -10.09375 L 3.90625 -10.09375 L 3.90625 -9.046875 L 3.9375 -9.046875 C 4.226562 -9.484375 4.585938 -9.820312 5.015625 -10.0625 C 5.441406 -10.300781 5.921875 -10.421875 6.453125 -10.421875 C 6.847656 -10.398438 7.242188 -10.316406 7.640625 -10.171875 Z M 7.296875 -7.5 "/></g></g></g><g fill="#000000" fill-opacity="1"><g transform="translate(329.202271, 1246.371544)"><g><path d="M 0.90625 -14.328125 C 0.90625 -14.773438 1.066406 -15.171875 1.390625 -15.515625 C 1.722656 -15.859375 2.128906 -16.03125 2.609375 -16.03125 C 3.085938 -16.03125 3.488281 -15.859375 3.8125 -15.515625 C 4.144531 -15.171875 4.3125 -14.773438 4.3125 -14.328125 C 4.3125 -13.847656 4.144531 -13.441406 3.8125 -13.109375 C 3.488281 -12.773438 3.085938 -12.609375 2.609375 -12.609375 C 2.128906 -12.609375 1.722656 -12.773438 1.390625 -13.109375 C 1.066406 -13.441406 0.90625 -13.847656 0.90625 -14.328125 Z M 4.046875 -10.09375 L 4.046875 0 L 1.171875 0 L 1.171875 -10.09375 Z M 4.046875 -10.09375 "/></g></g></g><g fill="#000000" fill-opacity="1"><g transform="translate(334.191197, 1246.371544)"><g/></g></g><g fill="#000000" fill-opacity="1"><g transform="translate(339.91925, 1246.371544)"><g><path d="M 4.125 -15.5 L 4.125 0 L 1.109375 0 L 1.109375 -15.5 Z M 4.125 -15.5 "/></g></g></g><g fill="#000000" fill-opacity="1"><g transform="translate(344.928707, 1246.371544)"><g><path d="M 10.0625 0 L 7.1875 0 L 7.1875 -5.828125 C 7.1875 -6.566406 7.078125 -7.128906 6.859375 -7.515625 C 6.640625 -7.910156 6.226562 -8.109375 5.625 -8.109375 C 5.082031 -8.109375 4.660156 -7.894531 4.359375 -7.46875 C 4.054688 -7.039062 3.90625 -6.289062 3.90625 -5.21875 L 3.90625 0 L 1.03125 0 L 1.03125 -10.09375 L 3.90625 -10.09375 L 3.90625 -9.15625 L 3.9375 -9.15625 C 4.238281 -9.613281 4.625 -9.9375 5.09375 -10.125 C 5.5625 -10.320312 6.054688 -10.421875 6.578125 -10.421875 C 7.742188 -10.421875 8.613281 -10.066406 9.1875 -9.359375 C 9.769531 -8.648438 10.0625 -7.613281 10.0625 -6.25 Z M 10.0625 0 "/></g></g></g><g fill="#000000" fill-opacity="1"><g transform="translate(355.810092, 1246.371544)"><g><path d="M 6.203125 -7.703125 C 5.992188 -7.898438 5.757812 -8.066406 5.5 -8.203125 C 5.238281 -8.335938 4.96875 -8.40625 4.6875 -8.40625 C 4.445312 -8.40625 4.226562 -8.320312 4.03125 -8.15625 C 3.832031 -7.988281 3.734375 -7.785156 3.734375 -7.546875 C 3.734375 -7.285156 3.847656 -7.078125 4.078125 -6.921875 C 4.304688 -6.773438 4.660156 -6.601562 5.140625 -6.40625 L 5.8125 -6.140625 C 6.445312 -5.898438 6.953125 -5.546875 7.328125 -5.078125 C 7.703125 -4.617188 7.890625 -4.007812 7.890625 -3.25 C 7.890625 -2.207031 7.519531 -1.347656 6.78125 -0.671875 C 6.050781 -0.00390625 5.113281 0.328125 3.96875 0.328125 C 3.269531 0.328125 2.609375 0.179688 1.984375 -0.109375 C 1.367188 -0.410156 0.84375 -0.828125 0.40625 -1.359375 L 1.71875 -3.0625 C 2.007812 -2.75 2.332031 -2.472656 2.6875 -2.234375 C 3.039062 -2.003906 3.429688 -1.890625 3.859375 -1.890625 C 4.171875 -1.890625 4.441406 -1.988281 4.671875 -2.1875 C 4.898438 -2.382812 5.015625 -2.648438 5.015625 -2.984375 C 5.015625 -3.296875 4.894531 -3.539062 4.65625 -3.71875 C 4.414062 -3.894531 4.054688 -4.082031 3.578125 -4.28125 C 2.703125 -4.601562 2.113281 -4.894531 1.8125 -5.15625 C 1.519531 -5.425781 1.304688 -5.722656 1.171875 -6.046875 C 1.046875 -6.367188 0.984375 -6.738281 0.984375 -7.15625 C 0.984375 -8.09375 1.285156 -8.867188 1.890625 -9.484375 C 2.503906 -10.109375 3.269531 -10.421875 4.1875 -10.421875 C 4.78125 -10.398438 5.367188 -10.304688 5.953125 -10.140625 C 6.546875 -9.972656 7.039062 -9.71875 7.4375 -9.375 Z M 6.203125 -7.703125 "/></g></g></g><g fill="#000000" fill-opacity="1"><g transform="translate(364.022417, 1246.371544)"><g><path d="M 4.25 -13.5 L 4.25 -10.09375 L 6.015625 -10.09375 L 6.015625 -7.65625 L 4.25 -7.65625 L 4.25 0 L 1.375 0 L 1.375 -7.65625 L 0.390625 -7.65625 L 0.390625 -10.09375 L 1.375 -10.09375 L 1.375 -13.5 Z M 4.25 -13.5 "/></g></g></g><g fill="#000000" fill-opacity="1"><g transform="translate(369.442499, 1246.371544)"><g><path d="M 0.90625 -14.328125 C 0.90625 -14.773438 1.066406 -15.171875 1.390625 -15.515625 C 1.722656 -15.859375 2.128906 -16.03125 2.609375 -16.03125 C 3.085938 -16.03125 3.488281 -15.859375 3.8125 -15.515625 C 4.144531 -15.171875 4.3125 -14.773438 4.3125 -14.328125 C 4.3125 -13.847656 4.144531 -13.441406 3.8125 -13.109375 C 3.488281 -12.773438 3.085938 -12.609375 2.609375 -12.609375 C 2.128906 -12.609375 1.722656 -12.773438 1.390625 -13.109375 C 1.066406 -13.441406 0.90625 -13.847656 0.90625 -14.328125 Z M 4.046875 -10.09375 L 4.046875 0 L 1.171875 0 L 1.171875 -10.09375 Z M 4.046875 -10.09375 "/></g></g></g><g fill="#000000" fill-opacity="1"><g transform="translate(374.43143, 1246.371544)"><g><path d="M 4.25 -13.5 L 4.25 -10.09375 L 6.015625 -10.09375 L 6.015625 -7.65625 L 4.25 -7.65625 L 4.25 0 L 1.375 0 L 1.375 -7.65625 L 0.390625 -7.65625 L 0.390625 -10.09375 L 1.375 -10.09375 L 1.375 -13.5 Z M 4.25 -13.5 "/></g></g></g><g fill="#000000" fill-opacity="1"><g transform="translate(379.851511, 1246.371544)"><g><path d="M 3.84375 -10.09375 L 3.84375 -4.546875 C 3.84375 -2.910156 4.390625 -2.09375 5.484375 -2.09375 C 6.578125 -2.09375 7.125 -2.910156 7.125 -4.546875 L 7.125 -10.09375 L 10 -10.09375 L 10 -4.0625 C 10 -2.6875 9.628906 -1.609375 8.890625 -0.828125 C 8.148438 -0.0546875 7.015625 0.328125 5.484375 0.328125 C 3.960938 0.328125 2.828125 -0.0625 2.078125 -0.84375 C 1.335938 -1.625 0.96875 -2.695312 0.96875 -4.0625 L 0.96875 -10.09375 Z M 3.84375 -10.09375 "/></g></g></g><g fill="#000000" fill-opacity="1"><g transform="translate(390.630243, 1246.371544)"><g><path d="M 4.25 -13.5 L 4.25 -10.09375 L 6.015625 -10.09375 L 6.015625 -7.65625 L 4.25 -7.65625 L 4.25 0 L 1.375 0 L 1.375 -7.65625 L 0.390625 -7.65625 L 0.390625 -10.09375 L 1.375 -10.09375 L 1.375 -13.5 Z M 4.25 -13.5 "/></g></g></g><g fill="#000000" fill-opacity="1"><g transform="translate(396.050324, 1246.371544)"><g><path d="M 3.34375 -4.578125 C 3.34375 -3.742188 3.519531 -3.082031 3.875 -2.59375 C 4.238281 -2.113281 4.726562 -1.875 5.34375 -1.875 C 5.820312 -1.875 6.210938 -2.003906 6.515625 -2.265625 C 6.828125 -2.523438 7.082031 -2.851562 7.28125 -3.25 L 9.921875 -2.8125 C 9.566406 -1.789062 8.976562 -1.007812 8.15625 -0.46875 C 7.34375 0.0625 6.40625 0.328125 5.34375 0.328125 C 3.851562 0.328125 2.640625 -0.15625 1.703125 -1.125 C 0.773438 -2.101562 0.3125 -3.378906 0.3125 -4.953125 C 0.3125 -6.609375 0.75 -7.929688 1.625 -8.921875 C 2.5 -9.921875 3.691406 -10.421875 5.203125 -10.421875 C 6.703125 -10.421875 7.875 -9.929688 8.71875 -8.953125 C 9.5625 -7.984375 9.984375 -6.609375 9.984375 -4.828125 L 9.984375 -4.578125 Z M 7.28125 -6.375 C 7.175781 -7 6.945312 -7.492188 6.59375 -7.859375 C 6.238281 -8.222656 5.820312 -8.40625 5.34375 -8.40625 C 4.894531 -8.40625 4.488281 -8.238281 4.125 -7.90625 C 3.769531 -7.582031 3.539062 -7.070312 3.4375 -6.375 Z M 7.28125 -6.375 "/></g></g></g><g fill="#000000" fill-opacity="1"><g transform="translate(406.130989, 1246.371544)"><g/></g></g><g fill="#000000" fill-opacity="1"><g transform="translate(411.859043, 1246.371544)"><g><path d="M 0.328125 -5.03125 C 0.328125 -6.625 0.828125 -7.921875 1.828125 -8.921875 C 2.828125 -9.921875 4.09375 -10.421875 5.625 -10.421875 C 7.1875 -10.421875 8.460938 -9.910156 9.453125 -8.890625 C 10.441406 -7.878906 10.9375 -6.59375 10.9375 -5.03125 C 10.9375 -3.457031 10.4375 -2.171875 9.4375 -1.171875 C 8.445312 -0.171875 7.175781 0.328125 5.625 0.328125 C 4.082031 0.328125 2.8125 -0.171875 1.8125 -1.171875 C 0.820312 -2.179688 0.328125 -3.46875 0.328125 -5.03125 Z M 5.609375 -7.875 C 4.960938 -7.875 4.40625 -7.59375 3.9375 -7.03125 C 3.476562 -6.476562 3.25 -5.8125 3.25 -5.03125 C 3.25 -4.28125 3.476562 -3.625 3.9375 -3.0625 C 4.40625 -2.5 4.96875 -2.21875 5.625 -2.21875 C 6.3125 -2.21875 6.878906 -2.5 7.328125 -3.0625 C 7.785156 -3.625 8.015625 -4.28125 8.015625 -5.03125 C 8.015625 -5.769531 7.789062 -6.425781 7.34375 -7 C 6.894531 -7.582031 6.316406 -7.875 5.609375 -7.875 Z M 5.609375 -7.875 "/></g></g></g><g fill="#000000" fill-opacity="1"><g transform="translate(422.904685, 1246.371544)"><g><path d="M 6.3125 -14.765625 C 6.09375 -14.878906 5.890625 -14.96875 5.703125 -15.03125 C 5.523438 -15.09375 5.335938 -15.125 5.140625 -15.125 C 4.679688 -15.113281 4.375 -14.9375 4.21875 -14.59375 C 4.070312 -14.25 4 -13.847656 4 -13.390625 L 4 -10.09375 L 6.3125 -10.09375 L 6.3125 -7.65625 L 4 -7.65625 L 4 0 L 1.125 0 L 1.125 -7.65625 L 0.171875 -7.65625 L 0.171875 -10.09375 L 1.125 -10.09375 L 1.125 -13.09375 C 1.125 -14.53125 1.457031 -15.648438 2.125 -16.453125 C 2.789062 -17.265625 3.726562 -17.671875 4.9375 -17.671875 C 5.457031 -17.671875 5.914062 -17.5625 6.3125 -17.34375 Z M 6.3125 -14.765625 "/></g></g></g><g fill="#000000" fill-opacity="1"><g transform="translate(428.920168, 1246.371544)"><g/></g></g><g fill="#000000" fill-opacity="1"><g transform="translate(434.648221, 1246.371544)"><g><path d="M 9.265625 -15.5 L 9.265625 -12.859375 L 6.140625 -12.859375 L 6.140625 0 L 3.125 0 L 3.125 -12.859375 L 0 -12.859375 L 0 -15.5 Z M 9.265625 -15.5 "/></g></g></g><g fill="#000000" fill-opacity="1"><g transform="translate(443.702328, 1246.371544)"><g><path d="M 3.34375 -4.578125 C 3.34375 -3.742188 3.519531 -3.082031 3.875 -2.59375 C 4.238281 -2.113281 4.726562 -1.875 5.34375 -1.875 C 5.820312 -1.875 6.210938 -2.003906 6.515625 -2.265625 C 6.828125 -2.523438 7.082031 -2.851562 7.28125 -3.25 L 9.921875 -2.8125 C 9.566406 -1.789062 8.976562 -1.007812 8.15625 -0.46875 C 7.34375 0.0625 6.40625 0.328125 5.34375 0.328125 C 3.851562 0.328125 2.640625 -0.15625 1.703125 -1.125 C 0.773438 -2.101562 0.3125 -3.378906 0.3125 -4.953125 C 0.3125 -6.609375 0.75 -7.929688 1.625 -8.921875 C 2.5 -9.921875 3.691406 -10.421875 5.203125 -10.421875 C 6.703125 -10.421875 7.875 -9.929688 8.71875 -8.953125 C 9.5625 -7.984375 9.984375 -6.609375 9.984375 -4.828125 L 9.984375 -4.578125 Z M 7.28125 -6.375 C 7.175781 -7 6.945312 -7.492188 6.59375 -7.859375 C 6.238281 -8.222656 5.820312 -8.40625 5.34375 -8.40625 C 4.894531 -8.40625 4.488281 -8.238281 4.125 -7.90625 C 3.769531 -7.582031 3.539062 -7.070312 3.4375 -6.375 Z M 7.28125 -6.375 "/></g></g></g><g fill="#000000" fill-opacity="1"><g transform="translate(453.782993, 1246.371544)"><g><path d="M 7.890625 -7 C 7.585938 -7.320312 7.269531 -7.566406 6.9375 -7.734375 C 6.601562 -7.910156 6.21875 -8 5.78125 -8 C 5.050781 -8 4.441406 -7.707031 3.953125 -7.125 C 3.460938 -6.539062 3.21875 -5.832031 3.21875 -5 C 3.21875 -4.144531 3.46875 -3.445312 3.96875 -2.90625 C 4.46875 -2.363281 5.101562 -2.09375 5.875 -2.09375 C 6.269531 -2.09375 6.640625 -2.179688 6.984375 -2.359375 C 7.328125 -2.535156 7.628906 -2.769531 7.890625 -3.0625 L 7.890625 -0.28125 C 7.484375 -0.0507812 7.078125 0.101562 6.671875 0.1875 C 6.265625 0.28125 5.84375 0.328125 5.40625 0.328125 C 3.96875 0.328125 2.757812 -0.1875 1.78125 -1.21875 C 0.800781 -2.257812 0.3125 -3.523438 0.3125 -5.015625 C 0.3125 -5.984375 0.535156 -6.882812 0.984375 -7.71875 C 1.441406 -8.5625 2.070312 -9.222656 2.875 -9.703125 C 3.6875 -10.179688 4.578125 -10.421875 5.546875 -10.421875 C 5.929688 -10.421875 6.320312 -10.367188 6.71875 -10.265625 C 7.125 -10.160156 7.515625 -10 7.890625 -9.78125 Z M 7.890625 -7 "/></g></g></g><g fill="#000000" fill-opacity="1"><g transform="translate(462.221168, 1246.371544)"><g><path d="M 3.90625 -17.421875 L 3.90625 -9.25 L 3.9375 -9.25 C 4.257812 -9.65625 4.648438 -9.953125 5.109375 -10.140625 C 5.566406 -10.328125 6.054688 -10.421875 6.578125 -10.421875 C 7.742188 -10.421875 8.613281 -10.066406 9.1875 -9.359375 C 9.769531 -8.648438 10.0625 -7.613281 10.0625 -6.25 L 10.0625 0 L 7.1875 0 L 7.1875 -5.890625 C 7.1875 -6.441406 7.128906 -6.867188 7.015625 -7.171875 C 6.898438 -7.484375 6.738281 -7.71875 6.53125 -7.875 C 6.320312 -8.03125 6.015625 -8.109375 5.609375 -8.109375 C 5.015625 -8.109375 4.582031 -7.875 4.3125 -7.40625 C 4.039062 -6.9375 3.90625 -6.207031 3.90625 -5.21875 L 3.90625 0 L 1.03125 0 L 1.03125 -17.421875 Z M 3.90625 -17.421875 "/></g></g></g><g fill="#000000" fill-opacity="1"><g transform="translate(473.102564, 1246.371544)"><g><path d="M 10.0625 0 L 7.1875 0 L 7.1875 -5.828125 C 7.1875 -6.566406 7.078125 -7.128906 6.859375 -7.515625 C 6.640625 -7.910156 6.226562 -8.109375 5.625 -8.109375 C 5.082031 -8.109375 4.660156 -7.894531 4.359375 -7.46875 C 4.054688 -7.039062 3.90625 -6.289062 3.90625 -5.21875 L 3.90625 0 L 1.03125 0 L 1.03125 -10.09375 L 3.90625 -10.09375 L 3.90625 -9.15625 L 3.9375 -9.15625 C 4.238281 -9.613281 4.625 -9.9375 5.09375 -10.125 C 5.5625 -10.320312 6.054688 -10.421875 6.578125 -10.421875 C 7.742188 -10.421875 8.613281 -10.066406 9.1875 -9.359375 C 9.769531 -8.648438 10.0625 -7.613281 10.0625 -6.25 Z M 10.0625 0 "/></g></g></g><g fill="#000000" fill-opacity="1"><g transform="translate(483.983949, 1246.371544)"><g><path d="M 0.328125 -5.03125 C 0.328125 -6.625 0.828125 -7.921875 1.828125 -8.921875 C 2.828125 -9.921875 4.09375 -10.421875 5.625 -10.421875 C 7.1875 -10.421875 8.460938 -9.910156 9.453125 -8.890625 C 10.441406 -7.878906 10.9375 -6.59375 10.9375 -5.03125 C 10.9375 -3.457031 10.4375 -2.171875 9.4375 -1.171875 C 8.445312 -0.171875 7.175781 0.328125 5.625 0.328125 C 4.082031 0.328125 2.8125 -0.171875 1.8125 -1.171875 C 0.820312 -2.179688 0.328125 -3.46875 0.328125 -5.03125 Z M 5.609375 -7.875 C 4.960938 -7.875 4.40625 -7.59375 3.9375 -7.03125 C 3.476562 -6.476562 3.25 -5.8125 3.25 -5.03125 C 3.25 -4.28125 3.476562 -3.625 3.9375 -3.0625 C 4.40625 -2.5 4.96875 -2.21875 5.625 -2.21875 C 6.3125 -2.21875 6.878906 -2.5 7.328125 -3.0625 C 7.785156 -3.625 8.015625 -4.28125 8.015625 -5.03125 C 8.015625 -5.769531 7.789062 -6.425781 7.34375 -7 C 6.894531 -7.582031 6.316406 -7.875 5.609375 -7.875 Z M 5.609375 -7.875 "/></g></g></g><g fill="#000000" fill-opacity="1"><g transform="translate(495.029602, 1246.371544)"><g><path d="M 3.90625 -17.421875 L 3.90625 0 L 1.03125 0 L 1.03125 -17.421875 Z M 3.90625 -17.421875 "/></g></g></g><g fill="#000000" fill-opacity="1"><g transform="translate(499.731086, 1246.371544)"><g><path d="M 0.328125 -5.03125 C 0.328125 -6.625 0.828125 -7.921875 1.828125 -8.921875 C 2.828125 -9.921875 4.09375 -10.421875 5.625 -10.421875 C 7.1875 -10.421875 8.460938 -9.910156 9.453125 -8.890625 C 10.441406 -7.878906 10.9375 -6.59375 10.9375 -5.03125 C 10.9375 -3.457031 10.4375 -2.171875 9.4375 -1.171875 C 8.445312 -0.171875 7.175781 0.328125 5.625 0.328125 C 4.082031 0.328125 2.8125 -0.171875 1.8125 -1.171875 C 0.820312 -2.179688 0.328125 -3.46875 0.328125 -5.03125 Z M 5.609375 -7.875 C 4.960938 -7.875 4.40625 -7.59375 3.9375 -7.03125 C 3.476562 -6.476562 3.25 -5.8125 3.25 -5.03125 C 3.25 -4.28125 3.476562 -3.625 3.9375 -3.0625 C 4.40625 -2.5 4.96875 -2.21875 5.625 -2.21875 C 6.3125 -2.21875 6.878906 -2.5 7.328125 -3.0625 C 7.785156 -3.625 8.015625 -4.28125 8.015625 -5.03125 C 8.015625 -5.769531 7.789062 -6.425781 7.34375 -7 C 6.894531 -7.582031 6.316406 -7.875 5.609375 -7.875 Z M 5.609375 -7.875 "/></g></g></g><g fill="#000000" fill-opacity="1"><g transform="translate(510.77674, 1246.371544)"><g><path d="M 7.640625 -9.125 L 7.640625 -10.09375 L 10.515625 -10.09375 L 10.515625 -0.515625 C 10.515625 1.390625 10.109375 2.847656 9.296875 3.859375 C 8.492188 4.878906 7.269531 5.390625 5.625 5.390625 C 4.238281 5.390625 3.0625 5 2.09375 4.21875 C 1.132812 3.4375 0.613281 2.425781 0.53125 1.1875 L 3.578125 1.1875 C 3.640625 1.726562 3.847656 2.15625 4.203125 2.46875 C 4.566406 2.789062 5.019531 2.953125 5.5625 2.953125 C 6.332031 2.953125 6.867188 2.707031 7.171875 2.21875 C 7.484375 1.726562 7.640625 1.007812 7.640625 0.0625 L 7.640625 -1 L 7.609375 -1 C 7.304688 -0.59375 6.90625 -0.269531 6.40625 -0.03125 C 5.90625 0.207031 5.382812 0.328125 4.84375 0.328125 C 3.5 0.328125 2.40625 -0.171875 1.5625 -1.171875 C 0.726562 -2.179688 0.3125 -3.445312 0.3125 -4.96875 C 0.3125 -5.96875 0.507812 -6.890625 0.90625 -7.734375 C 1.3125 -8.585938 1.875 -9.25 2.59375 -9.71875 C 3.3125 -10.1875 4.113281 -10.421875 5 -10.421875 C 5.476562 -10.421875 5.957031 -10.300781 6.4375 -10.0625 C 6.925781 -9.832031 7.316406 -9.519531 7.609375 -9.125 Z M 5.59375 -7.875 C 4.9375 -7.875 4.375 -7.59375 3.90625 -7.03125 C 3.445312 -6.46875 3.21875 -5.800781 3.21875 -5.03125 C 3.21875 -4.28125 3.445312 -3.625 3.90625 -3.0625 C 4.375 -2.5 4.941406 -2.21875 5.609375 -2.21875 C 6.265625 -2.21875 6.828125 -2.492188 7.296875 -3.046875 C 7.765625 -3.609375 8 -4.269531 8 -5.03125 C 8 -5.8125 7.765625 -6.476562 7.296875 -7.03125 C 6.828125 -7.59375 6.257812 -7.875 5.59375 -7.875 Z M 5.59375 -7.875 "/></g></g></g><g fill="#000000" fill-opacity="1"><g transform="translate(522.109823, 1246.371544)"><g><path d="M 2.890625 -10.09375 L 5.296875 -4.359375 L 7.890625 -10.09375 L 11.09375 -10.09375 L 3.765625 5.390625 L 0.59375 5.390625 L 3.921875 -1.546875 L -0.375 -10.09375 Z M 2.890625 -10.09375 "/></g></g></g></svg>